<svg xmlns="http://www.w3.org/2000/svg" viewBox="0 0 30.5 22.19"><defs><style>.cls-1{fill:none;stroke:#007952;stroke-linecap:round;stroke-linejoin:round;stroke-width:2px;}</style></defs><g id="レイヤー_2" data-name="レイヤー 2"><g id="レイヤー_2-2" data-name="レイヤー 2"><path class="cls-1" d="M23.86,5.12A9.82,9.82,0,0,0,17.33,8a15.44,15.44,0,0,0-2.45,2.89"/><path class="cls-1" d="M7.53,5.12A8,8,0,0,1,12.43,7c1.68,1.45,2.7,3.54,2.45,3.86S13.42,9.71,11,9.16A8.34,8.34,0,0,0,9.17,9C6,8.86,1,8,1,4.15S6.21.39,10,2.23A8.69,8.69,0,0,1,13.14,5a10.71,10.71,0,0,1,1.74,4.91"/><line class="cls-1" x1="14.91" y1="10.79" x2="14.91" y2="21.19"/><path class="cls-1" d="M14.94,10.9c-.17.8.12.34.76,0,1.35-.73,3.83-1.1,6.27-1.4,4.34-.53,7.28-1.84,7.52-4.93s-5-4.16-9.15-2.12C16.91,4.13,15.49,8.38,14.94,10.9Z"/></g></g></svg>